<?xml version="1.0" standalone="no"?> <!DOCTYPE svg PUBLIC "-//W3C//DTD SVG 1.0//EN" "http://www.w3.org/TR/2001/REC-SVG-20010904/DTD/svg10.dtd" > <svg xmlns="http://www.w3.org/2000/svg" width="100%" height="100%">
<defs >
<font id="tradegothicltstdbdcn20" horiz-adv-x="431" ><font-face
    font-family="TradeGothicLTStd-BdCn20"
    units-per-em="1000"
    panose-1="2 11 8 6 2 5 2 2 2 4"
    ascent="722"
    descent="-278"
    alphabetic="0" />
<missing-glyph horiz-adv-x="500" d="M0 0V700H500V0H0ZM250 395L420 650H80L250 395ZM280 350L450 95V605L280 350ZM80 50H420L250 305L80 50ZM50 605V95L220 350L50 605Z" />
<glyph unicode=" " glyph-name="space" horiz-adv-x="222" />
<glyph unicode="!" glyph-name="exclam" horiz-adv-x="278" d="M98 212L76 722H202L180 212H98ZM198 0H80V118H198V0Z" />
<glyph unicode="&quot;" glyph-name="quotedbl" horiz-adv-x="333" d="M40 448V722H134V448H40ZM199 448V722H293V448H199Z" />
<glyph unicode="#" glyph-name="numbersign" horiz-adv-x="444" d="M408 292V214H336L312 0H222L247 214H166L142 0H51L76 214H10V292H86L101 430H35V508H111L136 722H225L200 508H281L306 722H395L370 508H434V430H362L346 292H408ZM272 430H192L176 292H256L272 430Z" />
<glyph unicode="$" glyph-name="dollar" horiz-adv-x="444" d="M192 722V810H252V722Q339 705 391 631L315 566Q285 617 252 624V417Q331 367 372 319T414 194Q414 116 371 62T252 0V-116H192V0Q96 10 30 113L113 176Q137 112 192 96V331Q123 373 82 422T40 537Q40
609 80 661T192 722ZM192 450V624Q169 617 156 597T142 550Q142 495 192 450ZM252 293V96Q308 118 308 189Q308 223 295 245T252 293Z" />
<glyph unicode="%" glyph-name="percent" horiz-adv-x="778" d="M50 490T50 558T98 674T214 722T330 674T378 558T330 442T214 394T98 442ZM130 592T130 558T155 499T214 474T273 499T298 558T273 617T214 642T155 617ZM480 198T480 164T505 105T564 80T623 105T648
164T623 223T564 248T505 223ZM400 96T400 164T448 280T564 328T680 280T728 164T680 48T564 0T448 48ZM557 732H632L223 -10H148L557 732Z" />
<glyph unicode="&amp;" glyph-name="ampersand" horiz-adv-x="556" d="M192 589Q192 534 226 450Q286 529 286 582Q286 660 241 660Q192 660 192 589ZM404 350L506 323Q503 307 498 290T488 260T476 227T465 197T451 164T438 134Q469 106 507 100V-10Q425 -8 367
45Q309 -10 225 -10Q147 -10 100 37T52 159Q52 260 147 363Q90 490 90 562Q90 638 130 685T247 732Q315 732 354 691T394 582Q394 569 392 556T387 531T378 507T367 484T353 462T338 442T321 421T305 401T287 382T270 363Q309 281 360 216Q394 304 404 350ZM166
175Q166 143 186 121T239 98T296 119Q230 198 197 264Q166 217 166 175Z" />
<glyph unicode="&apos;" glyph-name="quotesingle" horiz-adv-x="222" d="M64 448V722H158V448H64Z" />
<glyph unicode="(" glyph-name="parenleft" horiz-adv-x="278" d="M150 732H246Q128 549 128 323T246 -86H150Q94 1 63 107T32 323T63 538T150 732Z" />
<glyph unicode=")" glyph-name="parenright" horiz-adv-x="278" d="M32 732H128Q184 645 215 539T246 323T215 108T128 -86H32Q150 97 150 323T32 732Z" />
<glyph unicode="*" glyph-name="asterisk" horiz-adv-x="444" d="M372 645L402 556Q388 555 251 539Q315 470 362 432L283 377Q273 405 222 517Q171 405 161 377L82 432Q129 470 193 539Q56 555 42 556L72 645Q132 609 199 578Q194 642 175 722H269Q250 642 245
578Q312 609 372 645Z" />
<glyph unicode="+" glyph-name="plus" horiz-adv-x="600" d="M251 302V506H349V302H553V204H349V0H251V204H47V302H251Z" />
<glyph unicode="," glyph-name="comma" horiz-adv-x="222" d="M170 118V0L101 -124H48L97 0H52V118H170Z" />
<glyph unicode="-" glyph-name="hyphen" horiz-adv-x="333" d="M289 223H44V315H289V223Z" />
<glyph unicode="." glyph-name="period" horiz-adv-x="222" d="M170 0H52V118H170V0Z" />
<glyph unicode="/" glyph-name="slash" horiz-adv-x="278" d="M-21 -10L201 732H299L77 -10H-21Z" />
<glyph unicode="0" glyph-name="zero" horiz-adv-x="444" d="M280 157V565Q280 634 222 634T164 565V157Q164 88 222 88T280 157ZM46 188V534Q46 637 88 684T222 732T356 685T398 534V188Q398 85 356 38T222 -10T88 37T46 188Z" />
<glyph unicode="1" glyph-name="one" horiz-adv-x="444" d="M177 0V572H79V639Q173 687 226 732H289V0H177Z" />
<glyph unicode="2" glyph-name="two" horiz-adv-x="444" d="M389 0H44V97Q180 295 231 387T282 552Q282 634 226 634Q197 634 182 614T166 559V510H48V544Q48 626 97 679T232 732Q306 732 353 685T400 572Q400 484 356 393T170 102H389V0Z" />
<glyph unicode="3" glyph-name="three" horiz-adv-x="444" d="M46 209H158V160Q158 88 214 88Q273 88 273 173V228Q273 286 249 308T167 330V428Q223 428 245 451T268 538Q268 590 257 612T218 634Q190 634 176 618T162 560V530H50V564Q50 639 95 685T219 732Q295
732 337 678T380 547Q380 480 364 443T302 381Q355 353 373 316T391 202Q391 94 347 42T211 -10Q46 -10 46 166V209Z" />
<glyph unicode="4" glyph-name="four" horiz-adv-x="444" d="M111 266H234V548H232L111 266ZM232 0V174H16V266L226 722H346V266H412V174H346V0H232Z" />
<glyph unicode="5" glyph-name="five" horiz-adv-x="444" d="M50 209H162V151Q162 122 177 105T217 88Q278 88 278 176V340Q278 373 264 389T226 406Q179 406 159 351H63Q72 603 72 722H373L369 620H174L167 464L169 462Q191 488 211 496T264 504Q396 504 396
314V214Q396 98 357 44T228 -10Q147 -10 99 29T50 154V209Z" />
<glyph unicode="6" glyph-name="six" horiz-adv-x="444" d="M383 528H275V565Q275 634 222 634Q164 634 164 565V396Q191 423 211 433T266 444Q324 444 361 408T398 296V210Q398 95 357 43T222 -10Q130 -10 88 37T46 188V534Q46 637 88 684T222 732Q294 733 338
688T383 572V528ZM164 313V157Q164 88 222 88T280 157V277Q280 346 228 346Q205 346 164 313Z" />
<glyph unicode="7" glyph-name="seven" horiz-adv-x="444" d="M263 620H56V722H382V652L235 0H118L263 620Z" />
<glyph unicode="8" glyph-name="eight" horiz-adv-x="444" d="M46 200Q46 271 62 314T121 385Q56 432 56 529Q56 631 99 681T222 732T344 682T388 529Q388 432 323 385Q366 357 382 314T398 200Q398 98 354 44T222 -10T91 44T46 200ZM158 88T222 88T286 208T222
328T158 208ZM193 436T222 436T263 459T276 535T264 610T222 634T181 611T168 535T180 460Z" />
<glyph unicode="9" glyph-name="nine" horiz-adv-x="444" d="M61 194H169V157Q169 88 222 88Q280 88 280 157V326Q253 299 233 289T178 278Q120 278 83 314T46 426V512Q46 627 87 679T222 732Q314 732 356 685T398 534V188Q398 85 356 38T222 -10Q150 -11 106
34T61 150V194ZM280 409V565Q280 634 222 634T164 565V445Q164 376 216 376Q239 376 280 409Z" />
<glyph unicode=":" glyph-name="colon" horiz-adv-x="222" d="M170 0H52V118H170V0ZM170 278H52V396H170V278Z" />
<glyph unicode=";" glyph-name="semicolon" horiz-adv-x="222" d="M170 118V0L101 -124H48L97 0H52V118H170ZM170 278H52V396H170V278Z" />
<glyph unicode="&lt;" glyph-name="less" horiz-adv-x="600" d="M553 104V0L47 211V295L553 506V402L188 253L553 104Z" />
<glyph unicode="=" glyph-name="equal" horiz-adv-x="600" d="M553 406V308H47V406H553ZM553 198V100H47V198H553Z" />
<glyph unicode="&gt;" glyph-name="greater" horiz-adv-x="600" d="M47 0V104L412 253L47 402V506L553 295V211L47 0Z" />
<glyph unicode="?" glyph-name="question" horiz-adv-x="389" d="M233 212H137V296Q137 373 189 469Q192 475 201 492T214 515T224 535T233 557T238 575T241 595Q241 613 229 626T199 640Q148 640 128 564L32 600Q56 667 99 699T213 732Q271 732 314 694T357 598Q357
564 346 533T327 488T295 443Q275 416 264 397T243 343T233 266V212ZM242 0H124V118H242V0Z" />
<glyph unicode="@" glyph-name="at" horiz-adv-x="800" d="M369 233Q421 233 456 281T492 384Q492 421 470 446T415 471Q363 471 327 423T291 322Q291 284 312 259T369 233ZM523 496L539 548H620L557 291Q550 263 550 252Q550 225 566 225Q610 225 646 278T682
408Q682 524 607 589T415 654Q288 654 209 571T130 359T214 150T427 68Q557 68 640 151H723Q672 74 593 32T421 -10Q259 -10 150 93T40 361Q40 520 149 626T416 732Q555 732 657 647T760 429Q760 371 741 321T694 240T631 185T567 153T513 143Q489 143 473 156T456
197L454 198Q404 143 346 143Q282 143 237 192T191 309Q191 408 251 484T406 561Q483 561 523 496Z" />
<glyph unicode="A" glyph-name="A" horiz-adv-x="444" d="M221 578L172 268H272L223 578H221ZM154 160L132 0H12L145 722H299L432 0H312L290 160H154Z" />
<glyph unicode="B" glyph-name="B" horiz-adv-x="500" d="M184 324V102H236Q284 102 305 129T326 213Q326 270 302 297T224 324H184ZM184 620V426H229Q266 426 289 450T312 518Q312 620 231 620H184ZM60 0V722H244Q436 722 436 531Q436 481 415 439T350 380Q450
336 450 209Q450 113 403 57T256 0H60Z" />
<glyph unicode="C" glyph-name="C" horiz-adv-x="500" d="M434 481H310V537Q310 580 293 602T250 624Q214 624 199 605T184 544V178Q184 136 199 117T250 98Q283 98 296 116T310 171V258H434V175Q434 94 387 42T250 -10Q157 -10 109 42T60 175V547Q60 628 108
680T250 732Q339 732 386 676T434 534V481Z" />
<glyph unicode="D" glyph-name="D" horiz-adv-x="500" d="M184 620V102H227Q277 102 296 124T316 203V519Q316 576 297 598T227 620H184ZM60 0V722H244Q440 722 440 504V218Q440 0 244 0H60Z" />
<glyph unicode="E" glyph-name="E" horiz-adv-x="444" d="M406 0H60V722H392V614H184V428H344V320H184V108H406V0Z" />
<glyph unicode="F" glyph-name="F" horiz-adv-x="444" d="M184 0H60V722H406V614H184V428H350V320H184V0Z" />
<glyph unicode="G" glyph-name="G" horiz-adv-x="500" d="M231 268V366H434V0H374L351 54Q322 19 295 5T226 -10Q152 -10 106 40T60 175V547Q60 628 107 680T242 732Q331 732 379 676T428 534V488H310Q310 566 294 595T239 624Q184 624 184 545V174Q184 98 242
98Q279 98 294 121T310 198V268H231Z" />
<glyph unicode="H" glyph-name="H" horiz-adv-x="500" d="M184 0H60V722H184V428H316V722H440V0H316V320H184V0Z" />
<glyph unicode="I" glyph-name="I" horiz-adv-x="278" d="M201 0H77V722H201V0Z" />
<glyph unicode="J" glyph-name="J" horiz-adv-x="278" d="M3 -10V98H29Q64 98 79 112T94 158V722H218V144Q218 69 180 30T44 -10H3Z" />
<glyph unicode="K" glyph-name="K" horiz-adv-x="444" d="M178 0H54V722H178V455H180L310 722H434L300 453L451 0H325L224 336H222L178 256V0Z" />
<glyph unicode="L" glyph-name="L" horiz-adv-x="389" d="M373 0H54V722H178V108H373V0Z" />
<glyph unicode="M" glyph-name="M" horiz-adv-x="611" d="M394 722H557V0H449V564H447L335 0H275L163 564H161V0H53V722H216L304 300H306L394 722Z" />
<glyph unicode="N" glyph-name="N" horiz-adv-x="500" d="M172 0H60V722H175L326 309H328V722H440V0H332L174 451H172V0Z" />
<glyph unicode="O" glyph-name="O" horiz-adv-x="500" d="M60 175V547Q60 628 108 680T250 732T391 680T440 547V175Q440 94 392 42T250 -10T109 42T60 175ZM184 544V178Q184 136 199 117T250 98T301 117T316 178V544Q316 586 301 605T250 624T199 605T184 544Z" />
<glyph unicode="P" glyph-name="P" horiz-adv-x="500" d="M184 620V398H232Q293 398 315 421T338 509T316 596T232 620H184ZM184 0H60V722H238Q355 722 408 673T462 509T409 346T238 296H184V0Z" />
<glyph unicode="Q" glyph-name="Q" horiz-adv-x="500" d="M477 54V-54Q438 -54 410 -41T351 13Q310 -10 250 -10Q157 -10 109 42T60 175V547Q60 628 108 680T250 732T391 680T440 547V175Q440 122 419 82Q449 56 477 54ZM259 148V258Q293 240 316 214V544Q316
586 301 605T250 624T199 605T184 544V178Q184 136 199 117T250 98Q278 98 292 109Q279 133 259 148Z" />
<glyph unicode="R" glyph-name="R" horiz-adv-x="500" d="M184 620V398H228Q279 398 299 422T320 509T300 596T228 620H184ZM184 296V0H60V722H234Q341 722 392 672T444 509Q444 366 357 327L462 0H336L248 299Q224 296 184 296Z" />
<glyph unicode="S" glyph-name="S" horiz-adv-x="444" d="M404 557L286 544Q283 587 264 605T220 624Q158 624 158 553Q158 520 184 487T247 423T321 358T384 277T410 175Q410 87 357 39T214 -10Q131 -10 82 47T28 190L146 207Q150 154 169 126T220 98Q253 98
272 115T292 164Q292 203 266 238T203 304T129 366T66 447T40 552Q40 638 90 685T232 732Q306 732 350 684T404 557Z" />
<glyph unicode="T" glyph-name="T" horiz-adv-x="389" d="M132 0V614H12V722H376V614H256V0H132Z" />
<glyph unicode="U" glyph-name="U" horiz-adv-x="500" d="M60 182V722H184V177Q184 98 250 98T316 177V722H440V182Q440 90 390 40T250 -10T111 40T60 182Z" />
<glyph unicode="V" glyph-name="V" horiz-adv-x="444" d="M223 221L313 722H435L284 0H160L9 722H131L221 221H223Z" />
<glyph unicode="W" glyph-name="W" horiz-adv-x="667" d="M194 262L275 722H377L461 262H463L532 722H648L521 0H417L327 477H325L241 0H137L0 722H116L192 262H194Z" />
<glyph unicode="X" glyph-name="X" horiz-adv-x="444" d="M14 0L156 378L24 722H146L222 493H224L293 722H415L290 378L430 0H308L224 263H222L136 0H14Z" />
<glyph unicode="Y" glyph-name="Y" horiz-adv-x="444" d="M284 300V0H160V300L10 722H136L223 447H225L308 722H434L284 300Z" />
<glyph unicode="Z" glyph-name="Z" horiz-adv-x="444" d="M275 614H72V722H400V604L172 108H400V0H44V118L275 614Z" />
<glyph unicode="[" glyph-name="bracketleft" horiz-adv-x="278" d="M250 722V674H132V-28H250V-76H36V722H250Z" />
<glyph unicode="\" glyph-name="backslash" horiz-adv-x="278" d="M77 732L299 -10H201L-21 732H77Z" />
<glyph unicode="]" glyph-name="bracketright" horiz-adv-x="278" d="M28 674V722H242V-76H28V-28H146V674H28Z" />
<glyph unicode="^" glyph-name="asciicircum" horiz-adv-x="600" d="M163 302H56L246 722H354L544 302H435L299 604L163 302Z" />
<glyph unicode="_" glyph-name="underscore" horiz-adv-x="500" d="M500 -125H0V-75H500V-125Z" />
<glyph unicode="`" glyph-name="grave" horiz-adv-x="222" d="M99 602L-32 746H103L182 602H99Z" />
<glyph unicode="a" glyph-name="a" horiz-adv-x="444" d="M154 380H42Q46 461 94 504T222 548Q301 548 343 512T385 402V57Q385 42 392 0H285Q284 8 282 22T279 42Q215 -10 148 -10Q93 -10 64 23T34 111Q34 197 91 252T273 355V387Q273 456 218 456Q182 456 169
437T154 380ZM273 132V273Q200 231 173 200T146 131Q146 82 198 82Q238 82 273 132Z" />
<glyph unicode="b" glyph-name="b" horiz-adv-x="444" d="M160 0H54V722H166V492Q194 515 206 523T238 540T282 548Q335 548 365 509T396 398V140Q396 68 366 29T282 -10Q241 -10 216 4T162 56H160V0ZM166 428V110Q204 82 230 82Q284 82 284 169V369Q284 456 230
456Q204 456 166 428Z" />
<glyph unicode="c" glyph-name="c" horiz-adv-x="444" d="M396 354H284V368Q284 456 222 456T160 368V170Q160 82 222 82T284 170V204H396V190Q396 -10 222 -10T48 190V348Q48 548 222 548Q393 548 396 354Z" />
<glyph unicode="d" glyph-name="d" horiz-adv-x="444" d="M390 0H284V56H282Q253 19 228 5T162 -10Q109 -10 79 29T48 140V398Q48 470 78 509T162 548Q185 548 205 540T238 524T278 492V722H390V0ZM278 110V428Q240 456 214 456Q160 456 160 369V169Q160 82 214
82Q240 82 278 110Z" />
<glyph unicode="e" glyph-name="e" horiz-adv-x="444" d="M160 340H284V368Q284 456 222 456T160 368V340ZM396 348V248H160V170Q160 82 222 82T284 170V182H396Q393 -10 222 -10Q48 -10 48 190V348Q48 548 222 548T396 348Z" />
<glyph unicode="f" glyph-name="f" horiz-adv-x="278" d="M76 0V446H10V538H76V605Q76 732 201 732H257V640H225Q205 640 197 632T188 604V538H252V446H188V0H76Z" />
<glyph unicode="g" glyph-name="g" horiz-adv-x="444" d="M426 548V455Q420 456 408 456Q375 456 354 439Q366 397 366 354Q366 235 326 187T196 138H160Q138 132 138 113T167 88T239 81T324 74T396 40T426 -42Q426 -170 196 -170Q111 -170 65 -148T18 -84Q18
-54 39 -31T91 0V2Q40 22 40 70T108 157Q64 187 50 223T36 350Q36 460 75 504T210 548Q284 548 334 490Q358 525 375 536T426 548ZM176 -90T231 -90T306 -81T326 -50T306 -19T231 -10T156 -19T136 -50T156 -81ZM198 230Q231 230 242 252T254 343T243 433T198 456Q169
456 156 432T142 343T155 254T198 230Z" />
<glyph unicode="h" glyph-name="h" horiz-adv-x="444" d="M166 0H54V722H166V488Q194 512 205 521T240 539T296 548Q340 548 365 518T390 435V0H278V417Q278 456 238 456Q213 456 166 422V0Z" />
<glyph unicode="i" glyph-name="i" horiz-adv-x="222" d="M167 0H55V538H167V0ZM167 620H55V722H167V620Z" />
<glyph unicode="j" glyph-name="j" horiz-adv-x="222" d="M0 -170V-68H19Q61 -68 61 -26V537H173V-31Q173 -170 43 -170H0ZM173 620H61V722H173V620Z" />
<glyph unicode="k" glyph-name="k" horiz-adv-x="444" d="M411 538L294 368L424 0H311L221 267H219L166 188V0H54V722H166V348H168L291 538H411Z" />
<glyph unicode="l" glyph-name="l" horiz-adv-x="222" d="M167 0H55V722H167V0Z" />
<glyph unicode="m" glyph-name="m" horiz-adv-x="667" d="M389 0H277V417Q277 456 238 456Q213 456 166 422V0H54V538H160V484Q213 529 233 538Q256 548 284 548Q324 548 343 534T382 484Q421 522 448 535T507 548Q559 548 585 518T612 435V0H500V417Q500 456
460 456Q434 456 389 422V0Z" />
<glyph unicode="n" glyph-name="n" horiz-adv-x="444" d="M166 0H54V538H160V484Q192 511 203 520T240 538T296 548Q340 548 365 518T390 435V0H278V417Q278 456 238 456Q213 456 166 422V0Z" />
<glyph unicode="o" glyph-name="o" horiz-adv-x="444" d="M284 170V368Q284 456 222 456T160 368V170Q160 82 222 82T284 170ZM48 190V348Q48 548 222 548T396 348V190Q396 -10 222 -10T48 190Z" />
<glyph unicode="p" glyph-name="p" horiz-adv-x="444" d="M54 538H160V482H162Q191 519 216 533T282 548Q335 548 365 509T396 398V140Q396 68 366 29T282 -10Q259 -10 239 -2T206 14T166 46V-170H54V538ZM166 428V110Q204 82 230 82Q284 82 284 169V369Q284 456
230 456Q204 456 166 428Z" />
<glyph unicode="q" glyph-name="q" horiz-adv-x="444" d="M284 538H390V-170H278V46Q250 23 238 15T206 -2T162 -10Q109 -10 79 29T48 140V398Q48 470 78 509T162 548Q203 548 228 534T282 482H284V538ZM278 110V428Q240 456 214 456Q160 456 160 369V169Q160
82 214 82Q240 82 278 110Z" />
<glyph unicode="r" glyph-name="r" horiz-adv-x="333" d="M166 0H54V538H161V475H163Q206 548 290 548H313V431Q269 442 241 442Q210 442 188 423T166 370V0Z" />
<glyph unicode="s" glyph-name="s" horiz-adv-x="389" d="M353 405L258 389Q246 456 194 456Q172 456 159 445T145 413Q145 390 166 368T219 324T281 279T333 217T355 135Q355 65 312 28T198 -10Q54 -10 27 140L125 167Q138 82 199 82Q221 82 235 94T249 129Q249
154 228 178T175 224T113 270T61 328T39 404Q39 467 82 507T189 548T296 509T353 405Z" />
<glyph unicode="t" glyph-name="t" horiz-adv-x="278" d="M72 446H10V538H72V683H184V538H259V446H184V136Q184 92 222 92H259V-4Q237 -10 203 -10Q72 -10 72 111V446Z" />
<glyph unicode="u" glyph-name="u" horiz-adv-x="444" d="M278 538H390V0H284V54Q252 27 241 18T204 0T148 -10Q104 -10 79 20T54 103V538H166V121Q166 82 206 82Q231 82 278 116V538Z" />
<glyph unicode="v" glyph-name="v" horiz-adv-x="389" d="M195 178L265 538H379L249 0H140L10 538H124L193 178H195Z" />
<glyph unicode="w" glyph-name="w" horiz-adv-x="556" d="M165 202L236 537H319L379 202H381L442 538H550L426 0H336L275 340H273L200 0H110L6 538H114L163 202H165Z" />
<glyph unicode="x" glyph-name="x" horiz-adv-x="389" d="M12 0L132 285L21 538H137L194 388L254 538H370L254 287L376 0H260L195 182H193L128 0H12Z" />
<glyph unicode="y" glyph-name="y" horiz-adv-x="389" d="M198 194L266 538H379L238 -40Q220 -112 185 -140T85 -169H38V-77H65Q106 -77 122 -56T139 10Q139 36 127 81L10 538H124L196 194H198Z" />
<glyph unicode="z" glyph-name="z" horiz-adv-x="389" d="M235 446H44V538H359V446L150 92H359V0H30V92L235 446Z" />
<glyph unicode="{" glyph-name="braceleft" horiz-adv-x="278" d="M0 296V354Q24 354 40 374T56 434V636Q56 686 79 709T160 732H270V684H188Q152 684 152 634V440Q152 386 127 358T76 326V323Q102 319 127 291T152 206V12Q152 -38 188 -38H270V-86H160Q102 -86
79 -63T56 10V216Q56 256 40 276T0 296Z" />
<glyph unicode="|" glyph-name="bar" horiz-adv-x="222" d="M62 -10V732H160V-10H62Z" />
<glyph unicode="}" glyph-name="braceright" horiz-adv-x="278" d="M278 350V292Q254 292 238 272T222 212V10Q222 -40 199 -63T118 -86H8V-38H90Q126 -38 126 12V206Q126 260 151 288T202 320V323Q176 327 151 355T126 440V634Q126 684 90 684H8V732H118Q176
732 199 709T222 636V430Q222 390 238 370T278 350Z" />
<glyph unicode="~" glyph-name="asciitilde" horiz-adv-x="600" d="M495 335L539 249Q533 244 518 229T493 206T470 189T440 175T406 171Q364 171 304 204Q250 235 189 235Q138 235 105 171L61 257Q84 283 95 294T135 320T194 335Q233 335 305 303Q310 301 322
296T340 288T356 281T373 276T389 273T407 271Q426 271 443 282T470 303T495 335Z" />
</font>
</defs>
</svg>
